<svg width="24" height="24" viewBox="0 0 24 24" fill="none" xmlns="http://www.w3.org/2000/svg">
<path d="M12 15C15.3137 15 18 12.3137 18 9C18 5.68629 15.3137 3 12 3C8.68629 3 6 5.68629 6 9C6 12.3137 8.68629 15 12 15Z" stroke="url(#paint0_linear)" stroke-width="1.5" stroke-linecap="round" stroke-linejoin="round"/>
<path d="M2.90625 20.2491C3.82834 18.6531 5.1542 17.3278 6.75064 16.4064C8.34708 15.485 10.1579 15 12.0011 15C13.8444 15 15.6552 15.4851 17.2516 16.4065C18.848 17.3279 20.1739 18.6533 21.0959 20.2493" stroke="url(#paint1_linear)" stroke-width="1.5" stroke-linecap="round" stroke-linejoin="round"/>
<defs>
<linearGradient id="paint0_linear" x1="4.01928" y1="5.17391" x2="18.3857" y2="5.38826" gradientUnits="userSpaceOnUse">
<stop stop-color="#DFDFDF"/>
<stop offset="0.313154" stop-color="#4C5055"/>
<stop offset="1" stop-color="#191E24"/>
</linearGradient>
<linearGradient id="paint1_linear" x1="-0.0961405" y1="15.951" x2="21.6273" y2="17.0741" gradientUnits="userSpaceOnUse">
<stop stop-color="#DFDFDF"/>
<stop offset="0.313154" stop-color="#4C5055"/>
<stop offset="1" stop-color="#191E24"/>
</linearGradient>
</defs>
</svg>
