<svg width="44" height="44" viewBox="0 0 44 44" fill="none" xmlns="http://www.w3.org/2000/svg">
<path d="M22 36.5312C30.0254 36.5312 36.5312 30.0254 36.5312 22C36.5312 13.9746 30.0254 7.46875 22 7.46875C13.9746 7.46875 7.46875 13.9746 7.46875 22C7.46875 30.0254 13.9746 36.5312 22 36.5312Z" fill="url(#paint0_linear)"/>
<path fill-rule="evenodd" clip-rule="evenodd" d="M22 7C13.7191 7 7 13.7191 7 22C7 30.2809 13.7191 37 22 37C30.2646 37 37 30.2809 37 22C37 13.7191 30.2646 7 22 7ZM31.9078 13.9143C33.6974 16.0944 34.7712 18.8763 34.8037 21.8861C34.3807 21.8048 30.1507 20.9425 25.8883 21.4794C25.7907 21.2679 25.7093 21.0401 25.6117 20.8124C25.3514 20.1942 25.0586 19.5597 24.7657 18.9577C29.4837 17.038 31.6312 14.2722 31.9078 13.9143ZM22 9.21258C25.2538 9.21258 28.231 10.4328 30.4924 12.4338C30.2646 12.7592 28.3286 15.346 23.7733 17.0542C21.6746 13.1985 19.3482 10.0423 18.9903 9.55423C19.9501 9.32646 20.9588 9.21258 22 9.21258ZM16.5499 10.4165C16.8916 10.872 19.1692 14.0445 21.3004 17.8188C15.3135 19.4132 10.026 19.3807 9.45662 19.3807C10.2863 15.4111 12.9707 12.1085 16.5499 10.4165ZM9.18004 22.0163C9.18004 21.8861 9.18004 21.756 9.18004 21.6258C9.73319 21.6421 15.9479 21.7234 22.3416 19.8037C22.7159 20.5195 23.0575 21.2516 23.3829 21.9837C23.2202 22.0325 23.0412 22.0814 22.8785 22.1301C16.2733 24.2613 12.7592 30.0857 12.4664 30.5737C10.4327 28.3124 9.18004 25.3026 9.18004 22.0163ZM22 34.8199C19.039 34.8199 16.3059 33.8113 14.1421 32.1193C14.3698 31.6475 16.9728 26.6367 24.1963 24.115C24.2288 24.0987 24.2451 24.0987 24.2777 24.0825C26.0835 28.7516 26.8157 32.6724 27.0108 33.795C25.4653 34.462 23.7733 34.8199 22 34.8199ZM29.1421 32.6237C29.0119 31.8427 28.3286 28.1009 26.6529 23.4967C30.6714 22.8622 34.1854 23.9035 34.6248 24.0499C34.0716 27.6128 32.0217 30.6876 29.1421 32.6237Z" fill="#1E1E22"/>
<defs>
<linearGradient id="paint0_linear" x1="3" y1="7.49998" x2="39.7174" y2="12.2218" gradientUnits="userSpaceOnUse">
<stop stop-color="#EBECED"/>
<stop offset="0.313154" stop-color="#727477"/>
<stop offset="1" stop-color="#2F3338"/>
</linearGradient>
</defs>
</svg>
